<?xml version="1.0" standalone="no"?>
<!DOCTYPE svg PUBLIC "-//W3C//DTD SVG 20010904//EN"
 "http://www.w3.org/TR/2001/REC-SVG-20010904/DTD/svg10.dtd">
<svg version="1.0" xmlns="http://www.w3.org/2000/svg"
 width="800.000000pt" height="800.000000pt" viewBox="0 0 800.000000 800.000000"
 preserveAspectRatio="xMidYMid meet">
<metadata>
Created by potrace 1.14, written by Peter Selinger 2001-2017
</metadata>
<g transform="translate(0.000000,800.000000) scale(0.100000,-0.100000)"
fill="#000000" stroke="none">
<path d="M4058 7520 l-23 -6 0 -253 c0 -163 3 -255 10 -257 5 -1 65 -5 131 -9
67 -3 131 -7 142 -10 11 -2 49 -6 83 -10 35 -4 66 -8 69 -10 3 -2 26 -6 50 -9
49 -6 82 -12 108 -20 9 -3 28 -7 42 -10 193 -39 456 -133 680 -245 715 -357
1279 -1021 1514 -1781 50 -165 94 -358 110 -490 10 -84 17 -149 21 -200 6 -72
6 -374 0 -425 -2 -22 -7 -69 -10 -105 -3 -36 -10 -90 -15 -120 -5 -30 -12 -73
-16 -95 -16 -107 -96 -406 -129 -480 -7 -16 -16 -41 -20 -55 -7 -23 -23 -62
-62 -150 -115 -258 -284 -524 -477 -750 -70 -82 -289 -291 -384 -368 -93 -74
-333 -242 -347 -242 -3 0 -22 -11 -43 -23 -203 -128 -603 -281 -867 -333 -94
-18 -125 -24 -157 -29 -139 -20 -187 -24 -313 -31 l-120 -6 0 244 0 244 -122
-2 c-136 -3 -236 17 -344 70 -371 182 -521 645 -327 1009 66 123 188 243 313
305 124 63 192 77 360 76 l120 -1 -1 261 c0 243 5 294 27 281 4 -3 43 2 86 11
373 76 588 470 457 836 -81 224 -299 394 -529 410 l-40 3 0 1122 c0 617 -3
1125 -8 1129 -7 7 -159 7 -242 -1 -22 -2 -69 -7 -105 -10 -92 -9 -165 -20
-321 -50 -16 -3 -60 -15 -159 -42 -545 -148 -1054 -463 -1429 -884 -118 -132
-122 -137 -213 -264 -140 -196 -248 -393 -343 -624 -63 -154 -133 -384 -151
-497 -3 -21 -8 -42 -10 -45 -2 -4 -6 -24 -9 -45 -3 -22 -10 -64 -15 -94 -9
-54 -15 -105 -25 -225 -6 -68 -7 -362 -1 -415 2 -19 7 -69 10 -110 4 -41 11
-100 16 -130 5 -30 12 -73 15 -95 4 -22 10 -56 15 -75 5 -19 11 -46 14 -60 19
-111 94 -341 163 -503 158 -369 354 -659 643 -947 208 -208 465 -403 676 -512
27 -14 66 -35 85 -45 19 -10 63 -32 99 -47 36 -16 88 -39 115 -51 134 -60 404
-142 560 -170 201 -37 349 -52 575 -59 l45 -1 0 -245 0 -245 1730 0 1730 0 0
3504 c1 2971 -1 3504 -13 3509 -18 7 -3394 9 -3424 2z m-762 -1287 c138 -67
215 -200 210 -358 -2 -70 -7 -92 -35 -149 -41 -82 -121 -157 -201 -187 -104
-40 -237 -31 -331 22 -53 31 -121 106 -151 167 -27 54 -32 77 -35 147 -3 97
13 154 64 230 103 155 310 211 479 128z"/>
<path d="M4765 2925 c-174 -105 -145 -88 -341 -202 -90 -53 -163 -99 -162
-102 31 -64 66 -111 80 -107 15 3 614 351 632 367 6 6 -59 132 -67 128 -1 0
-65 -38 -142 -84z"/>
<path d="M4250 2254 l0 -72 378 2 377 1 1 60 c0 33 -1 65 -3 70 -2 7 -131 11
-378 11 l-375 0 0 -72z"/>
<path d="M4308 1982 c-21 -25 -58 -88 -58 -99 0 -6 26 -26 58 -45 31 -20 168
-104 304 -187 136 -83 254 -154 262 -157 17 -6 92 104 79 116 -4 4 -100 63
-213 132 -113 69 -253 155 -311 191 -99 61 -108 65 -121 49z"/>
</g>
</svg>
